<?xml version="1.0" standalone="no"?>
<!DOCTYPE svg PUBLIC "-//W3C//DTD SVG 20010904//EN"
 "http://www.w3.org/TR/2001/REC-SVG-20010904/DTD/svg10.dtd">
<svg version="1.0" xmlns="http://www.w3.org/2000/svg"
 width="2000.000000pt" height="2000.000000pt" viewBox="0 0 2000.000000 2000.000000"
 preserveAspectRatio="xMidYMid meet">
<metadata>
Created by potrace 1.16, written by Peter Selinger 2001-2019
</metadata>
<g transform="translate(0.000000,2000.000000) scale(0.100000,-0.100000)"
fill="#000000" stroke="none">
<path d="M9580 16550 c-41 -5 -152 -13 -246 -20 -94 -6 -182 -13 -195 -16 -13
-4 -62 -10 -109 -15 -47 -5 -101 -13 -120 -18 -19 -6 -64 -13 -100 -17 -36 -4
-69 -9 -75 -13 -5 -3 -39 -12 -75 -19 -112 -22 -164 -31 -185 -35 -11 -1 -24
-5 -30 -9 -5 -3 -29 -9 -52 -13 -24 -4 -45 -11 -48 -15 -3 -5 -30 -12 -60 -15
-30 -4 -55 -11 -55 -15 0 -4 -20 -11 -45 -14 -25 -4 -45 -11 -45 -16 0 -4 -19
-11 -42 -15 -24 -4 -55 -14 -70 -21 -15 -8 -34 -14 -43 -14 -10 0 -31 -6 -48
-14 -18 -8 -63 -25 -102 -38 -38 -12 -72 -25 -75 -28 -3 -3 -39 -16 -80 -30
-41 -14 -76 -28 -78 -32 -2 -5 -10 -8 -18 -8 -7 0 -47 -16 -88 -35 -41 -19
-80 -35 -86 -35 -5 0 -10 -4 -10 -10 0 -5 -7 -10 -15 -10 -18 0 -129 -52 -133
-62 -2 -5 -10 -8 -19 -8 -8 0 -27 -8 -41 -18 -15 -10 -45 -27 -67 -37 -22 -11
-42 -23 -45 -27 -3 -3 -18 -10 -33 -13 -15 -4 -27 -11 -27 -15 0 -5 -13 -11
-30 -15 -16 -4 -30 -10 -30 -15 0 -4 -12 -11 -27 -15 -15 -3 -30 -10 -33 -13
-9 -12 -89 -62 -100 -62 -5 0 -10 -3 -10 -8 0 -4 -9 -12 -19 -17 -62 -32 -121
-69 -121 -77 0 -4 -5 -8 -11 -8 -7 0 -34 -16 -60 -35 -27 -19 -53 -35 -58 -35
-5 0 -11 -3 -13 -8 -1 -4 -42 -34 -90 -66 -49 -32 -88 -62 -88 -67 0 -5 -6 -9
-12 -9 -11 0 -60 -39 -109 -85 -9 -8 -19 -15 -24 -15 -4 0 -18 -11 -31 -25
-13 -14 -27 -25 -32 -25 -11 0 -59 -38 -112 -91 -21 -19 -50 -45 -66 -58 -133
-104 -567 -538 -582 -582 -2 -5 -29 -36 -60 -68 -75 -78 -94 -101 -142 -171
-8 -12 -23 -32 -34 -43 -10 -12 -26 -33 -34 -47 -9 -14 -22 -29 -29 -33 -7 -4
-13 -15 -13 -22 0 -8 -4 -15 -8 -15 -5 0 -36 -39 -68 -87 -32 -49 -63 -93 -69
-100 -5 -7 -15 -18 -21 -26 -6 -7 -15 -23 -18 -35 -4 -12 -11 -22 -14 -22 -4
0 -19 -21 -32 -47 -14 -27 -31 -52 -37 -56 -7 -4 -13 -15 -13 -22 0 -8 -4 -15
-10 -15 -5 0 -10 -6 -10 -14 0 -8 -6 -21 -13 -28 -7 -7 -24 -33 -38 -58 -13
-25 -29 -48 -36 -53 -6 -4 -14 -21 -18 -37 -4 -17 -11 -30 -16 -30 -5 0 -11
-11 -15 -25 -3 -14 -10 -25 -15 -25 -5 0 -9 -6 -9 -12 -1 -7 -9 -31 -20 -53
-11 -22 -19 -46 -20 -52 0 -7 -4 -13 -9 -13 -5 0 -12 -13 -16 -30 -4 -16 -10
-30 -14 -30 -11 0 -121 -226 -121 -248 0 -7 -4 -12 -9 -12 -5 0 -12 -13 -16
-30 -4 -16 -10 -30 -15 -30 -4 0 -11 -18 -15 -40 -4 -22 -11 -40 -16 -40 -5 0
-12 -18 -15 -40 -4 -22 -10 -40 -14 -40 -5 0 -11 -18 -15 -40 -4 -22 -11 -40
-15 -40 -5 0 -12 -16 -16 -35 -3 -19 -10 -35 -14 -35 -4 0 -11 -20 -14 -45 -4
-25 -11 -45 -16 -45 -4 0 -11 -18 -15 -41 -4 -22 -13 -53 -21 -67 -8 -15 -14
-35 -14 -45 0 -10 -6 -30 -14 -45 -8 -15 -18 -46 -21 -67 -4 -22 -11 -44 -15
-50 -4 -5 -11 -29 -15 -52 -4 -24 -11 -45 -15 -48 -5 -3 -12 -30 -15 -60 -4
-30 -11 -55 -15 -55 -4 0 -11 -29 -15 -65 -3 -36 -10 -65 -14 -65 -4 0 -8 -6
-8 -12 -4 -57 -17 -145 -24 -153 -4 -5 -11 -43 -14 -82 -4 -40 -11 -73 -15
-73 -4 0 -11 -39 -15 -87 -3 -49 -11 -104 -16 -123 -5 -19 -13 -89 -18 -155
-5 -66 -12 -133 -17 -150 -10 -38 -10 -920 0 -960 4 -16 12 -91 17 -165 5 -74
14 -144 19 -155 5 -11 12 -56 15 -100 4 -44 11 -84 15 -90 4 -5 11 -45 15 -87
4 -43 10 -78 14 -78 7 0 18 -74 23 -147 1 -7 5 -13 9 -13 4 0 10 -27 14 -60 4
-33 10 -62 15 -65 4 -3 11 -30 15 -60 3 -30 10 -55 14 -55 5 0 11 -22 15 -50
4 -27 11 -50 16 -50 6 0 10 -9 10 -19 0 -21 46 -176 60 -202 5 -9 12 -33 15
-53 4 -20 11 -36 15 -36 4 0 11 -21 15 -46 4 -26 11 -54 15 -63 17 -29 50
-110 50 -119 0 -5 7 -23 15 -38 8 -16 15 -39 15 -51 0 -13 4 -23 9 -23 5 0 12
-14 16 -30 4 -17 11 -30 16 -30 5 0 9 -5 9 -11 0 -5 9 -29 19 -52 11 -24 23
-55 26 -70 4 -15 11 -27 15 -27 5 0 11 -14 15 -30 4 -17 10 -30 15 -30 5 0 11
-14 15 -30 4 -17 10 -30 15 -30 4 0 11 -12 15 -27 3 -15 10 -30 13 -33 4 -3
32 -54 62 -115 30 -60 69 -134 87 -163 18 -29 33 -57 33 -62 0 -6 4 -10 9 -10
5 0 11 -8 15 -17 6 -19 11 -28 63 -105 18 -26 33 -52 33 -58 0 -5 4 -10 10
-10 5 0 12 -11 16 -25 3 -14 10 -25 15 -25 5 0 9 -4 9 -9 0 -13 112 -181 122
-181 4 0 8 -7 8 -15 0 -7 6 -18 13 -22 7 -4 23 -25 37 -45 14 -21 28 -38 33
-38 4 0 7 -7 7 -15 0 -7 6 -18 13 -22 6 -4 29 -30 50 -58 55 -74 79 -104 112
-144 17 -20 35 -42 40 -49 6 -7 30 -35 55 -61 25 -27 61 -68 80 -91 34 -41
172 -182 241 -247 19 -17 70 -68 113 -112 44 -45 83 -81 87 -81 4 0 29 -20 56
-45 26 -24 72 -67 102 -95 30 -27 60 -50 67 -50 7 0 14 -4 16 -9 3 -9 94 -81
102 -81 3 0 18 -12 34 -28 41 -38 210 -162 222 -162 6 0 10 -5 10 -10 0 -6 10
-15 23 -21 28 -13 46 -24 133 -82 39 -26 76 -47 83 -47 6 0 11 -4 11 -10 0 -5
5 -10 10 -10 10 0 69 -38 80 -51 5 -6 17 -13 107 -59 26 -14 50 -28 53 -31 3
-4 16 -10 30 -14 14 -4 27 -10 30 -14 3 -3 59 -33 125 -66 66 -33 122 -63 123
-67 2 -5 9 -8 15 -8 7 0 29 -9 50 -20 20 -11 44 -20 52 -20 8 0 15 -4 15 -10
0 -5 5 -10 11 -10 7 0 33 -10 58 -21 25 -12 55 -25 66 -30 11 -4 41 -17 66
-27 26 -11 61 -23 78 -27 17 -4 31 -10 31 -15 0 -5 20 -12 45 -16 25 -3 45
-10 45 -14 0 -5 18 -11 40 -15 22 -4 42 -10 45 -15 3 -4 21 -11 40 -14 19 -4
35 -11 35 -16 0 -5 20 -12 45 -16 25 -3 45 -10 45 -15 0 -4 23 -11 50 -15 28
-4 50 -10 50 -14 0 -4 21 -12 48 -18 26 -6 88 -22 137 -35 114 -30 226 -54
290 -63 28 -4 55 -10 61 -15 6 -5 43 -12 82 -15 40 -4 72 -10 72 -15 0 -4 43
-10 95 -14 52 -4 95 -11 95 -15 0 -4 57 -11 128 -15 70 -4 133 -12 141 -19 20
-16 1122 -16 1142 0 8 7 71 15 142 19 70 4 129 11 132 15 3 4 48 11 100 15 52
4 95 10 95 15 0 4 34 11 75 15 41 4 75 10 75 14 0 4 35 12 78 18 42 6 88 14
102 17 14 3 48 10 75 16 49 10 55 12 85 22 8 3 35 11 60 17 25 6 68 18 95 27
28 8 69 20 93 26 23 6 42 15 42 19 0 3 20 10 45 13 25 4 45 11 45 16 0 5 20
12 45 16 25 3 45 10 45 15 0 4 16 11 35 15 19 3 37 10 40 14 3 5 23 11 45 15
22 4 40 11 40 16 0 5 9 9 19 9 23 0 185 64 218 85 12 8 28 15 36 15 7 0 43 16
80 35 37 19 74 35 82 35 8 0 15 4 15 10 0 5 11 12 25 16 14 3 25 10 25 14 0 5
14 11 30 15 17 4 30 10 30 14 0 4 18 13 40 20 22 6 40 15 40 19 0 4 27 18 60
31 33 13 60 27 60 31 0 4 11 11 25 14 14 4 25 11 25 16 0 6 6 10 14 10 8 0 21
6 28 13 18 16 46 34 78 49 14 7 27 15 30 18 3 3 16 11 30 18 33 16 59 33 84
55 11 9 37 25 58 34 21 9 38 20 38 25 0 4 7 8 15 8 9 0 18 7 21 15 4 8 12 15
19 15 6 0 21 8 33 17 11 10 30 25 42 33 12 8 31 23 42 33 12 9 25 17 30 17 5
0 19 11 32 25 13 14 28 25 34 25 6 0 15 6 19 14 4 7 19 19 31 25 23 12 50 33
100 79 14 12 28 22 32 22 4 0 27 20 52 45 25 25 49 45 53 45 3 0 19 12 34 27
15 16 51 48 80 72 l52 44 -33 34 c-17 18 -36 33 -41 33 -6 0 -55 -40 -111 -89
-579 -506 -1297 -911 -2052 -1155 -392 -127 -782 -209 -1235 -258 -273 -30
-871 -32 -1129 -5 -260 28 -394 48 -405 61 -9 11 -86 28 -186 42 -32 4 -120
24 -199 45 -19 5 -91 22 -160 39 -191 46 -345 95 -560 176 -63 24 -118 44
-122 44 -14 0 -351 151 -469 210 -182 91 -357 189 -509 288 -47 30 -116 76
-155 100 -38 25 -82 55 -96 66 -15 12 -39 30 -55 41 -108 77 -317 241 -409
323 -376 334 -594 569 -866 934 -137 183 -180 244 -191 268 -5 8 -30 49 -57
90 -68 102 -191 309 -191 320 0 4 -3 10 -7 12 -5 1 -55 97 -113 211 -58 115
-113 225 -124 245 -37 74 -155 381 -215 563 -381 1159 -383 2482 -5 3641 106
325 195 541 350 848 201 399 270 515 462 783 921 1288 2313 2154 3866 2406
649 106 1371 102 2002 -9 795 -141 1565 -451 2244 -903 747 -498 1413 -1205
1840 -1955 41 -72 81 -132 89 -132 7 0 28 9 46 20 32 20 33 21 19 48 -9 15
-24 41 -35 57 -11 17 -25 42 -31 58 -7 15 -16 27 -20 27 -4 0 -8 7 -8 15 0 9
-6 18 -14 21 -8 3 -18 19 -21 35 -4 16 -11 29 -16 29 -5 0 -11 11 -15 24 -3
14 -12 27 -20 30 -8 3 -14 10 -14 16 0 9 -35 66 -50 80 -3 3 -11 16 -18 30
-13 28 -34 62 -42 70 -3 3 -23 29 -44 59 -21 30 -43 59 -47 65 -26 31 -46 56
-59 76 -8 13 -22 30 -30 39 -9 9 -27 33 -40 53 -14 21 -28 38 -32 38 -5 0 -8
7 -8 15 0 9 -7 18 -15 21 -8 4 -15 11 -15 16 0 6 -22 33 -50 60 -27 27 -50 53
-50 57 0 4 -27 36 -60 70 -33 35 -60 66 -60 69 0 3 -42 47 -92 97 -51 51 -120
121 -154 156 -56 59 -111 110 -222 206 -24 21 -61 54 -82 73 -21 20 -50 44
-65 55 -15 11 -43 35 -64 52 -20 18 -39 33 -43 33 -5 0 -16 8 -27 18 -58 54
-80 72 -90 72 -6 0 -11 4 -11 8 0 4 -12 15 -27 24 -28 16 -47 31 -103 76 -15
12 -33 22 -39 22 -6 0 -11 5 -11 10 0 6 -5 10 -10 10 -12 0 -73 41 -78 53 -2
4 -8 7 -13 7 -11 0 -72 42 -77 53 -2 4 -8 7 -14 7 -5 0 -30 15 -56 33 -51 35
-79 52 -102 63 -8 4 -52 29 -97 56 -45 26 -85 48 -88 48 -4 0 -13 7 -21 15 -9
8 -24 15 -34 15 -10 0 -21 4 -25 9 -3 6 -27 20 -53 33 -26 13 -48 26 -50 31
-2 4 -8 7 -14 7 -5 0 -49 18 -96 41 -117 55 -199 93 -247 113 -22 9 -48 21
-57 26 -10 6 -23 10 -28 10 -6 0 -31 9 -55 20 -24 11 -68 27 -99 37 -31 9 -56
20 -56 24 0 4 -18 10 -41 14 -22 4 -53 13 -67 21 -15 8 -37 14 -49 14 -13 0
-23 4 -23 8 0 5 -6 9 -12 10 -38 4 -118 27 -118 33 0 4 -20 11 -45 15 -25 3
-45 10 -45 15 0 4 -21 11 -47 15 -27 4 -50 10 -53 14 -5 6 -50 16 -190 44 -36
7 -72 15 -80 19 -8 3 -44 11 -80 17 -141 24 -215 38 -215 40 0 3 -45 9 -130
19 -44 5 -97 12 -118 15 -189 30 -893 54 -1057 36z"/>
<path d="M9630 14724 c-618 -55 -1067 -173 -1565 -413 -413 -199 -798 -474
-1130 -806 -203 -203 -302 -319 -475 -561 -152 -213 -221 -327 -329 -542 -232
-463 -367 -939 -422 -1487 -16 -155 -16 -605 0 -760 34 -341 111 -693 215
-990 31 -88 59 -169 61 -180 21 -91 240 -523 360 -708 297 -462 689 -871 1134
-1185 392 -276 892 -508 1341 -622 249 -63 283 -70 370 -75 41 -2 125 -11 185
-19 61 -9 201 -21 312 -27 688 -40 1416 111 2058 426 240 118 495 275 495 305
0 19 -14 39 -99 140 -70 84 -90 92 -25 11 27 -34 57 -73 67 -86 l18 -25 -83
-53 c-837 -539 -1853 -757 -2848 -611 -268 40 -362 61 -475 109 -44 19 -147
59 -230 89 -257 92 -288 105 -478 198 -182 89 -271 141 -457 263 -464 305
-906 753 -1181 1195 -29 47 -80 126 -114 175 -124 180 -257 448 -334 673 -33
94 -100 378 -145 609 -31 157 -54 348 -61 490 -3 60 -7 139 -10 176 -6 117 13
474 35 637 48 357 138 695 275 1030 59 145 207 452 275 570 172 300 523 710
846 988 608 522 1378 861 2174 957 280 34 731 52 870 35 387 -46 782 -146
1140 -287 689 -270 1304 -734 1760 -1326 47 -61 90 -112 95 -114 6 -1 23 8 40
21 l30 24 -27 38 c-29 40 -152 180 -344 388 -429 467 -1024 862 -1625 1080
-288 104 -541 166 -886 217 -186 27 -238 31 -488 34 -154 1 -300 1 -325 -1z"/>
</g>
</svg>
